<?xml version="1.0" ?>
<!-- Uploaded to: SVG Repo, www.svgrepo.com, Generator: SVG Repo Mixer Tools -->
<svg fill="#000000" width="800px" height="800px" viewBox="0 0 64 64" xmlns="http://www.w3.org/2000/svg">
<g data-name="20 market" id="_20_market">
<path d="M19.52,31H12.64a1,1,0,0,0-1,1v6.88a1,1,0,0,0,1,1h6.88a1,1,0,0,0,1-1V32A1,1,0,0,0,19.52,31Zm-1,6.88H13.64V33h4.88Z"/>
<path d="M53.07,50.83C55.43,46.97,58,41.92,58,39.04a10.006,10.006,0,0,0-9.98-10V20.21c0-.01-.01-.02-.01-.04a.829.829,0,0,0-.07-.34v-.01l-3.79-9.24a2.045,2.045,0,0,0-1.91-1.19h-.11V4.5a1,1,0,0,0-1-1H27.38a1,1,0,0,0-1,1V9.39H12.51a2.055,2.055,0,0,0-1.91,1.19L6.81,19.82v.01a1.032,1.032,0,0,0-.07.34c0,.02-.01.03-.01.04V50.64a1.987,1.987,0,0,0-1.96,1.98v4.92a1.985,1.985,0,0,0,1.98,1.98H41.24A22.813,22.813,0,0,0,48,60.5c5.45,0,11.23-1.78,11.23-5.09C59.23,53.35,56.91,51.65,53.07,50.83ZM48,31.04a8.011,8.011,0,0,1,8,8c0,2.58-2.88,8.09-5.39,11.99a.01.01,0,0,0-.01.01c-.77,1.19-1.5,2.24-2.1,3a.641.641,0,0,1-1,0c-.6-.76-1.33-1.81-2.1-3v-.01c-2.51-3.9-5.4-9.41-5.4-11.99A8.011,8.011,0,0,1,48,31.04Zm-9.93,6.84H36.23V33h3.82A9.915,9.915,0,0,0,38.07,37.88Zm7.95-13.7a2.9,2.9,0,0,1-2.9,2.89h-.06a2.9,2.9,0,0,1-2.9-2.89V21.21h5.86ZM42.24,11.39c.04,0,.07.01.07-.01l3.22,7.83H39.91l-2.35-7.82ZM32.3,21.21h5.86v2.97a2.9,2.9,0,0,1-2.89,2.89H35.2a2.9,2.9,0,0,1-2.9-2.89Zm-.09-2-.78-7.82h4.04l2.35,7.82ZM28.38,5.5H40.13V9.39H28.38Zm-3.05,5.89h4.09l.78,7.82H24.55Zm-.88,9.82H30.3v2.97a2.891,2.891,0,0,1-2.89,2.89h-.07a2.9,2.9,0,0,1-2.89-2.89Zm-1.13-9.82-.78,7.82H16.93l2.35-7.82Zm-.87,9.82v2.97a2.9,2.9,0,0,1-2.9,2.89h-.07a2.9,2.9,0,0,1-2.89-2.89V21.21ZM12.4,11.42a.178.178,0,0,1,.11-.03h4.68l-2.34,7.82H9.22ZM8.73,21.21h5.86v2.97a2.9,2.9,0,0,1-2.89,2.89h-.07a2.9,2.9,0,0,1-2.9-2.89Zm0,6.89a4.883,4.883,0,0,0,2.9.97h.07a4.876,4.876,0,0,0,3.89-1.96,4.876,4.876,0,0,0,3.89,1.96h.07a4.9,4.9,0,0,0,3.9-1.96,4.876,4.876,0,0,0,3.89,1.96h.07a4.862,4.862,0,0,0,3.89-1.96,4.9,4.9,0,0,0,3.9,1.96h.07a4.876,4.876,0,0,0,3.89-1.96,4.9,4.9,0,0,0,3.9,1.96h.06a4.86,4.86,0,0,0,2.9-.97v1.13A10.115,10.115,0,0,0,42.07,31H35.23a1,1,0,0,0-1,1v6.88a1,1,0,0,0,1,1h2.83c.4,2.9,2.64,7.28,4.75,10.76H32.3V41.79a4.925,4.925,0,0,0-9.85,0v8.85H8.73ZM30.3,41.79v8.85H24.45V41.79a2.925,2.925,0,0,1,5.85,0Zm6.47,13.62a3.056,3.056,0,0,0,.92,2.11l-30.92.02-.02-4.9H38.43A3.5,3.5,0,0,0,36.77,55.41ZM48,58.5c-5.63,0-9.23-1.83-9.23-3.09,0-.8,1.67-2.12,5.31-2.76.72,1.1,1.38,2.02,1.86,2.63a2.622,2.622,0,0,0,4.12,0c.48-.61,1.14-1.53,1.86-2.63,3.64.64,5.31,1.96,5.31,2.76C57.23,56.67,53.64,58.5,48,58.5Z"/>
<path d="M48,33.95a5.09,5.09,0,1,0,5.09,5.09A5.091,5.091,0,0,0,48,33.95Zm0,8.18a3.09,3.09,0,1,1,3.09-3.09A3.1,3.1,0,0,1,48,42.13Z"/>
</g>
</svg>